<mxfile host="app.diagrams.net" modified="2023-03-02T21:42:39.748Z" agent="5.0 (Windows NT 10.0; Win64; x64) AppleWebKit/537.36 (KHTML, like Gecko) Chrome/110.0.0.0 Safari/537.36 Edg/110.0.1587.57" etag="lFtSRbcVauArDHrRthGK" version="20.8.23" type="github">
  <diagram name="Pagina-1" id="KGRUwoOFGst_OYG9e4K2">
    <mxGraphModel dx="747" dy="470" grid="1" gridSize="10" guides="1" tooltips="1" connect="1" arrows="1" fold="1" page="1" pageScale="1" pageWidth="827" pageHeight="1169" math="0" shadow="0">
      <root>
        <mxCell id="0" />
        <mxCell id="1" parent="0" />
        <mxCell id="UCTIgVl8XxrF3BkiQs_B-1" value="&lt;font color=&quot;#006600&quot;&gt;Utiliz&lt;/font&gt;" style="shape=umlActor;verticalLabelPosition=bottom;verticalAlign=top;html=1;outlineConnect=0;fillColor=#d5e8d4;strokeColor=#82b366;labelPosition=center;align=right;fontStyle=4;shadow=0;sketch=1;curveFitting=1;jiggle=2;fontFamily=Comic Sans MS;" parent="1" vertex="1">
          <mxGeometry x="60" y="240" width="30" height="60" as="geometry" />
        </mxCell>
        <mxCell id="UCTIgVl8XxrF3BkiQs_B-2" value="" style="whiteSpace=wrap;html=1;aspect=fixed;" parent="1" vertex="1">
          <mxGeometry x="240" y="80" width="400" height="400" as="geometry" />
        </mxCell>
        <mxCell id="UCTIgVl8XxrF3BkiQs_B-3" value="&lt;u&gt;&lt;font color=&quot;#006600&quot; face=&quot;Comic Sans MS&quot;&gt;Client&lt;/font&gt;&lt;/u&gt;" style="shape=umlActor;verticalLabelPosition=bottom;verticalAlign=top;html=1;outlineConnect=0;sketch=1;curveFitting=1;jiggle=2;fillColor=#d5e8d4;strokeColor=#82b366;" parent="1" vertex="1">
          <mxGeometry x="130" y="150" width="30" height="60" as="geometry" />
        </mxCell>
        <mxCell id="UCTIgVl8XxrF3BkiQs_B-4" value="&lt;font color=&quot;#006600&quot;&gt;&lt;span style=&quot;background-color: rgb(255, 255, 255);&quot;&gt;&lt;u&gt;Administrator&lt;/u&gt;&lt;/span&gt;&lt;/font&gt;" style="shape=umlActor;verticalLabelPosition=bottom;verticalAlign=top;html=1;outlineConnect=0;sketch=1;curveFitting=1;jiggle=2;fillColor=#d5e8d4;strokeColor=#82b366;" parent="1" vertex="1">
          <mxGeometry x="130" y="360" width="30" height="60" as="geometry" />
        </mxCell>
        <mxCell id="UCTIgVl8XxrF3BkiQs_B-5" value="" style="endArrow=none;html=1;rounded=0;exitX=1;exitY=0.3333333333333333;exitDx=0;exitDy=0;exitPerimeter=0;entryX=0;entryY=0.3333333333333333;entryDx=0;entryDy=0;entryPerimeter=0;fontColor=#006600;labelBackgroundColor=#006600;strokeColor=#006600;sketch=1;curveFitting=1;jiggle=2;" parent="1" source="UCTIgVl8XxrF3BkiQs_B-1" target="UCTIgVl8XxrF3BkiQs_B-3" edge="1">
          <mxGeometry width="50" height="50" relative="1" as="geometry">
            <mxPoint x="80" y="240" as="sourcePoint" />
            <mxPoint x="130" y="190" as="targetPoint" />
          </mxGeometry>
        </mxCell>
        <mxCell id="UCTIgVl8XxrF3BkiQs_B-6" value="" style="endArrow=none;html=1;rounded=0;entryX=0;entryY=0.3333333333333333;entryDx=0;entryDy=0;entryPerimeter=0;strokeColor=#006600;sketch=1;curveFitting=1;jiggle=2;" parent="1" source="UCTIgVl8XxrF3BkiQs_B-1" target="UCTIgVl8XxrF3BkiQs_B-4" edge="1">
          <mxGeometry width="50" height="50" relative="1" as="geometry">
            <mxPoint x="50" y="390" as="sourcePoint" />
            <mxPoint x="100" y="340" as="targetPoint" />
          </mxGeometry>
        </mxCell>
        <mxCell id="UCTIgVl8XxrF3BkiQs_B-7" value="&lt;font color=&quot;#006600&quot; style=&quot;font-size: 14px;&quot;&gt;Plasare comanda&lt;/font&gt;" style="ellipse;whiteSpace=wrap;html=1;shadow=0;labelBackgroundColor=#FFFFFF;sketch=1;fontFamily=Comic Sans MS;fillColor=#d5e8d4;strokeColor=#82b366;" parent="1" vertex="1">
          <mxGeometry x="250" y="140" width="120" height="50" as="geometry" />
        </mxCell>
        <mxCell id="UCTIgVl8XxrF3BkiQs_B-8" value="" style="endArrow=none;html=1;rounded=0;labelBackgroundColor=#006600;sketch=1;strokeColor=#006600;fontFamily=Comic Sans MS;fontSize=14;fontColor=#006600;exitX=1;exitY=0.3333333333333333;exitDx=0;exitDy=0;exitPerimeter=0;entryX=0;entryY=0.5;entryDx=0;entryDy=0;" parent="1" source="UCTIgVl8XxrF3BkiQs_B-3" target="UCTIgVl8XxrF3BkiQs_B-7" edge="1">
          <mxGeometry width="50" height="50" relative="1" as="geometry">
            <mxPoint x="360" y="320" as="sourcePoint" />
            <mxPoint x="410" y="270" as="targetPoint" />
          </mxGeometry>
        </mxCell>
        <mxCell id="UCTIgVl8XxrF3BkiQs_B-10" value="&lt;font color=&quot;#006600&quot;&gt;Magazin online&lt;/font&gt;" style="rounded=0;whiteSpace=wrap;html=1;shadow=0;labelBackgroundColor=#FFFFFF;sketch=1;fontFamily=Comic Sans MS;fontSize=14;fillColor=#d5e8d4;strokeColor=#82b366;" parent="1" vertex="1">
          <mxGeometry x="380" y="60" width="120" height="40" as="geometry" />
        </mxCell>
        <mxCell id="UCTIgVl8XxrF3BkiQs_B-12" value="&lt;font color=&quot;#006600&quot;&gt;&lt;span style=&quot;font-size: 14px;&quot;&gt;Solicitare factura&lt;/span&gt;&lt;/font&gt;" style="ellipse;whiteSpace=wrap;html=1;shadow=0;labelBackgroundColor=#FFFFFF;sketch=1;fontFamily=Comic Sans MS;fillColor=#d5e8d4;strokeColor=#82b366;" parent="1" vertex="1">
          <mxGeometry x="470" y="110" width="120" height="50" as="geometry" />
        </mxCell>
        <mxCell id="UCTIgVl8XxrF3BkiQs_B-13" value="" style="endArrow=classic;dashed=1;html=1;dashPattern=1 3;strokeWidth=2;rounded=0;labelBackgroundColor=#006600;sketch=1;strokeColor=#006600;fontFamily=Comic Sans MS;fontSize=14;fontColor=#006600;exitX=0;exitY=0.5;exitDx=0;exitDy=0;endFill=1;entryX=1;entryY=0.5;entryDx=0;entryDy=0;" parent="1" source="UCTIgVl8XxrF3BkiQs_B-12" target="UCTIgVl8XxrF3BkiQs_B-7" edge="1">
          <mxGeometry width="50" height="50" relative="1" as="geometry">
            <mxPoint x="360" y="260" as="sourcePoint" />
            <mxPoint x="410" y="210" as="targetPoint" />
          </mxGeometry>
        </mxCell>
        <mxCell id="UCTIgVl8XxrF3BkiQs_B-32" value="&amp;lt;&amp;lt;extend&amp;gt;&amp;gt;" style="edgeLabel;html=1;align=center;verticalAlign=middle;resizable=0;points=[];fontSize=14;fontFamily=Comic Sans MS;fontColor=#006600;rotation=343;" parent="UCTIgVl8XxrF3BkiQs_B-13" vertex="1" connectable="0">
          <mxGeometry x="-0.3376" y="-10" relative="1" as="geometry">
            <mxPoint x="-14" as="offset" />
          </mxGeometry>
        </mxCell>
        <mxCell id="UCTIgVl8XxrF3BkiQs_B-17" value="&lt;font color=&quot;#006600&quot;&gt;&lt;span style=&quot;font-size: 14px;&quot;&gt;Logare&lt;/span&gt;&lt;/font&gt;" style="ellipse;whiteSpace=wrap;html=1;shadow=0;labelBackgroundColor=#FFFFFF;sketch=1;fontFamily=Comic Sans MS;fillColor=#d5e8d4;strokeColor=#82b366;" parent="1" vertex="1">
          <mxGeometry x="470" y="220" width="120" height="50" as="geometry" />
        </mxCell>
        <mxCell id="UCTIgVl8XxrF3BkiQs_B-19" value="&lt;font color=&quot;#006600&quot; style=&quot;font-size: 14px;&quot;&gt;Gestionare produse&lt;/font&gt;" style="ellipse;whiteSpace=wrap;html=1;shadow=0;labelBackgroundColor=#FFFFFF;sketch=1;fontFamily=Comic Sans MS;fillColor=#d5e8d4;strokeColor=#82b366;" parent="1" vertex="1">
          <mxGeometry x="250" y="370" width="130" height="50" as="geometry" />
        </mxCell>
        <mxCell id="UCTIgVl8XxrF3BkiQs_B-22" value="" style="endArrow=none;html=1;rounded=0;labelBackgroundColor=#006600;sketch=1;strokeColor=#006600;fontFamily=Comic Sans MS;fontSize=14;fontColor=#006600;exitX=1;exitY=0.3333333333333333;exitDx=0;exitDy=0;exitPerimeter=0;entryX=0;entryY=0.5;entryDx=0;entryDy=0;" parent="1" source="UCTIgVl8XxrF3BkiQs_B-4" target="UCTIgVl8XxrF3BkiQs_B-19" edge="1">
          <mxGeometry width="50" height="50" relative="1" as="geometry">
            <mxPoint x="360" y="260" as="sourcePoint" />
            <mxPoint x="410" y="210" as="targetPoint" />
          </mxGeometry>
        </mxCell>
        <mxCell id="UCTIgVl8XxrF3BkiQs_B-23" value="" style="endArrow=classic;dashed=1;html=1;dashPattern=1 3;strokeWidth=2;rounded=0;labelBackgroundColor=#006600;sketch=1;strokeColor=#006600;fontFamily=Comic Sans MS;fontSize=14;fontColor=#006600;endFill=1;entryX=0;entryY=0.5;entryDx=0;entryDy=0;exitX=1;exitY=1;exitDx=0;exitDy=0;" parent="1" source="UCTIgVl8XxrF3BkiQs_B-7" target="UCTIgVl8XxrF3BkiQs_B-17" edge="1">
          <mxGeometry width="50" height="50" relative="1" as="geometry">
            <mxPoint x="360" y="310" as="sourcePoint" />
            <mxPoint x="410" y="260" as="targetPoint" />
          </mxGeometry>
        </mxCell>
        <mxCell id="UCTIgVl8XxrF3BkiQs_B-31" value="&amp;lt;&amp;lt;include&amp;gt;&amp;gt;" style="edgeLabel;html=1;align=center;verticalAlign=middle;resizable=0;points=[];fontSize=14;fontFamily=Comic Sans MS;fontColor=#006600;rotation=27;" parent="UCTIgVl8XxrF3BkiQs_B-23" vertex="1" connectable="0">
          <mxGeometry x="-0.2096" y="4" relative="1" as="geometry">
            <mxPoint x="13" y="-4" as="offset" />
          </mxGeometry>
        </mxCell>
        <mxCell id="UCTIgVl8XxrF3BkiQs_B-24" value="&lt;font color=&quot;#006600&quot;&gt;&lt;span style=&quot;font-size: 14px;&quot;&gt;Adaugare produse&lt;/span&gt;&lt;/font&gt;" style="ellipse;whiteSpace=wrap;html=1;shadow=0;labelBackgroundColor=#FFFFFF;sketch=1;fontFamily=Comic Sans MS;fillColor=#d5e8d4;strokeColor=#82b366;" parent="1" vertex="1">
          <mxGeometry x="510" y="300" width="120" height="50" as="geometry" />
        </mxCell>
        <mxCell id="UCTIgVl8XxrF3BkiQs_B-25" value="&lt;font color=&quot;#006600&quot;&gt;&lt;span style=&quot;font-size: 14px;&quot;&gt;stergere produse&lt;/span&gt;&lt;/font&gt;" style="ellipse;whiteSpace=wrap;html=1;shadow=0;labelBackgroundColor=#FFFFFF;sketch=1;fontFamily=Comic Sans MS;fillColor=#d5e8d4;strokeColor=#82b366;" parent="1" vertex="1">
          <mxGeometry x="510" y="400" width="120" height="50" as="geometry" />
        </mxCell>
        <mxCell id="UCTIgVl8XxrF3BkiQs_B-26" value="" style="endArrow=classic;dashed=1;html=1;dashPattern=1 3;strokeWidth=2;rounded=0;labelBackgroundColor=#006600;sketch=1;strokeColor=#006600;fontFamily=Comic Sans MS;fontSize=14;fontColor=#006600;endFill=1;exitX=1;exitY=0;exitDx=0;exitDy=0;entryX=0;entryY=1;entryDx=0;entryDy=0;" parent="1" source="UCTIgVl8XxrF3BkiQs_B-19" target="UCTIgVl8XxrF3BkiQs_B-17" edge="1">
          <mxGeometry width="50" height="50" relative="1" as="geometry">
            <mxPoint x="360" y="310" as="sourcePoint" />
            <mxPoint x="410" y="260" as="targetPoint" />
          </mxGeometry>
        </mxCell>
        <mxCell id="UCTIgVl8XxrF3BkiQs_B-30" value="&amp;lt;&amp;lt;include&amp;gt;&amp;gt;" style="edgeLabel;html=1;align=center;verticalAlign=middle;resizable=0;points=[];fontSize=14;fontFamily=Comic Sans MS;fontColor=#006600;rotation=320;" parent="UCTIgVl8XxrF3BkiQs_B-26" vertex="1" connectable="0">
          <mxGeometry x="-0.17" y="7" relative="1" as="geometry">
            <mxPoint x="-4" y="-4" as="offset" />
          </mxGeometry>
        </mxCell>
        <mxCell id="UCTIgVl8XxrF3BkiQs_B-28" value="" style="endArrow=classic;html=1;rounded=0;labelBackgroundColor=#006600;sketch=1;strokeColor=#006600;fontFamily=Comic Sans MS;fontSize=14;fontColor=#006600;exitX=0;exitY=0.5;exitDx=0;exitDy=0;entryX=1;entryY=0.5;entryDx=0;entryDy=0;" parent="1" source="UCTIgVl8XxrF3BkiQs_B-24" target="UCTIgVl8XxrF3BkiQs_B-19" edge="1">
          <mxGeometry width="50" height="50" relative="1" as="geometry">
            <mxPoint x="360" y="310" as="sourcePoint" />
            <mxPoint x="410" y="260" as="targetPoint" />
          </mxGeometry>
        </mxCell>
        <mxCell id="UCTIgVl8XxrF3BkiQs_B-29" value="" style="endArrow=classic;html=1;rounded=0;labelBackgroundColor=#006600;sketch=1;strokeColor=#006600;fontFamily=Comic Sans MS;fontSize=14;fontColor=#006600;exitX=0;exitY=0.5;exitDx=0;exitDy=0;entryX=1;entryY=1;entryDx=0;entryDy=0;" parent="1" source="UCTIgVl8XxrF3BkiQs_B-25" target="UCTIgVl8XxrF3BkiQs_B-19" edge="1">
          <mxGeometry width="50" height="50" relative="1" as="geometry">
            <mxPoint x="360" y="310" as="sourcePoint" />
            <mxPoint x="410" y="260" as="targetPoint" />
          </mxGeometry>
        </mxCell>
      </root>
    </mxGraphModel>
  </diagram>
</mxfile>
